<!--?xml version="1.0" standalone="no"?-->
              <svg id="sw-js-blob-svg" viewBox="0 0 100 100" xmlns="http://www.w3.org/2000/svg" version="1.1">
                    <defs> 
                        <linearGradient id="sw-gradient" x1="0" x2="1" y1="1" y2="0">
                            <stop id="stop1" stop-color="rgba(17.504, 0, 103.718, 1)" offset="0%"></stop>
                            <stop id="stop2" stop-color="rgba(234.464, 83.586, 255, 1)" offset="100%"></stop>
                        </linearGradient>
                    </defs>
                <path fill="url(#sw-gradient)" d="M19.3,-31.2C23.8,-30.9,25.2,-23.2,27,-16.7C28.7,-10.3,30.8,-5.1,31.9,0.7C33,6.4,33.3,12.9,31.2,18.7C29.1,24.5,24.6,29.7,19,31.8C13.4,33.8,6.7,32.7,0.9,31.1C-4.9,29.5,-9.7,27.4,-13,24C-16.3,20.7,-18.1,16.1,-23.7,11.8C-29.3,7.6,-38.9,3.8,-37.9,0.5C-37,-2.8,-25.7,-5.5,-20.4,-10.3C-15,-15,-15.8,-21.8,-13.4,-23.3C-11,-24.8,-5.5,-21.1,1,-22.8C7.4,-24.5,14.9,-31.6,19.3,-31.2Z" width="100%" height="100%" transform="translate(50 50)" stroke-width="0" style="transition: all 0.3s ease 0s;"></path>
              </svg>